<svg width="151" height="151" viewBox="0 0 151 151" fill="none" xmlns="http://www.w3.org/2000/svg">
<g filter="url(#filter0_ii_1_5)">
<rect x="0.5" y="0.5" width="150" height="150" rx="10" fill="url(#paint0_linear_1_5)"/>
<g filter="url(#filter1_i_1_5)">
<path d="M66.84 93.8C66.04 96.2 64.88 98.4 63.36 100.4C61.88 102.4 60 104 57.72 105.2C55.48 106.36 52.8 106.94 49.68 106.94C45.36 106.94 42.26 105.8 40.38 103.52C38.5 101.24 37.56 98.46 37.56 95.18V51.74C37.56 51.02 37.42 50.5 37.14 50.18C36.86 49.86 36.36 49.7 35.64 49.7H28.5C27.66 49.7 27.1 49.6 26.82 49.4C26.54 49.2 26.4 48.7 26.4 47.9V44.66C26.4 43.9 26.5 43.46 26.7 43.34C26.94 43.18 27.44 43.1 28.2 43.1C30.36 43.1 32.12 42.96 33.48 42.68C34.84 42.4 35.96 41.78 36.84 40.82C37.72 39.86 38.5 38.36 39.18 36.32C39.86 34.28 40.6 31.52 41.4 28.04C41.56 27.36 41.74 26.9 41.94 26.66C42.14 26.42 42.68 26.3 43.56 26.3H46.8C47.84 26.3 48.36 26.88 48.36 28.04V41.24C48.36 42.08 48.56 42.6 48.96 42.8C49.36 43 49.94 43.1 50.7 43.1H64.02C64.82 43.1 65.34 43.22 65.58 43.46C65.86 43.7 66 44.24 66 45.08V48.2C66 48.92 65.84 49.36 65.52 49.52C65.24 49.64 64.74 49.7 64.02 49.7H50.82C49.98 49.7 49.36 49.8 48.96 50C48.56 50.2 48.36 50.76 48.36 51.68V92.66C48.36 95.06 48.84 96.8 49.8 97.88C50.76 98.96 52.04 99.5 53.64 99.5C55.36 99.5 56.9 98.9 58.26 97.7C59.66 96.46 60.88 94.7 61.92 92.42C62.2 91.82 62.44 91.46 62.64 91.34C62.88 91.22 63.32 91.28 63.96 91.52L65.88 92.18C66.36 92.34 66.68 92.52 66.84 92.72C67.04 92.92 67.04 93.28 66.84 93.8ZM57.1163 121.22C57.1163 119.38 57.4563 117.8 58.1362 116.48C58.8563 115.2 59.7763 114.2 60.8963 113.48C62.0163 112.8 63.1963 112.46 64.4363 112.46C66.2363 112.46 67.6763 112.96 68.7563 113.96C69.8763 115 70.4363 116.46 70.4363 118.34C70.4363 119.26 70.2563 120 69.8963 120.56C69.5763 121.12 69.1563 121.56 68.6363 121.88C68.1563 122.24 67.6563 122.56 67.1363 122.84C66.6563 123.16 66.2363 123.5 65.8763 123.86C65.5563 124.26 65.3963 124.78 65.3963 125.42C65.3963 126.78 65.9763 128 67.1363 129.08C68.3363 130.16 69.9163 130.7 71.8763 130.7C73.4363 130.7 75.1763 130.2 77.0963 129.2C79.0163 128.2 80.9963 126.4 83.0363 123.8C85.0763 121.2 87.0363 117.5 88.9163 112.7L90.2963 109.22C90.7763 107.98 90.9963 107.04 90.9563 106.4C90.9563 105.8 90.6763 104.9 90.1163 103.7L66.5363 51.62C66.1763 50.82 65.8563 50.3 65.5763 50.06C65.3363 49.82 64.6163 49.7 63.4163 49.7H58.2563C57.3763 49.7 56.7963 49.58 56.5163 49.34C56.2763 49.06 56.1562 48.5 56.1562 47.66V44.3C56.1562 43.74 56.2763 43.4 56.5163 43.28C56.7963 43.16 57.2163 43.1 57.7763 43.1H86.4562C87.4163 43.1 88.0163 43.24 88.2563 43.52C88.5363 43.8 88.6763 44.46 88.6763 45.5V47C88.6763 48.2 88.5363 48.96 88.2563 49.28C87.9763 49.56 87.2563 49.7 86.0963 49.7H80.4563C79.2163 49.7 78.4563 49.8 78.1763 50C77.8963 50.16 77.9563 50.66 78.3563 51.5L94.6763 87.86C95.2363 89.06 95.6563 89.96 95.9363 90.56C96.2563 91.12 96.5363 91.4 96.7763 91.4C97.0963 91.4 97.3963 91.04 97.6763 90.32C97.9563 89.6 98.3563 88.54 98.8763 87.14L112.796 51.74C113.116 50.86 113.176 50.3 112.976 50.06C112.816 49.82 112.096 49.7 110.816 49.7H106.496C105.616 49.7 105.056 49.54 104.816 49.22C104.616 48.9 104.516 48.34 104.516 47.54V45.5C104.516 44.46 104.676 43.8 104.996 43.52C105.316 43.24 105.976 43.1 106.976 43.1H128.456C129.136 43.1 129.616 43.18 129.896 43.34C130.176 43.46 130.316 43.86 130.316 44.54V47.3C130.316 48.18 130.236 48.8 130.076 49.16C129.916 49.52 129.376 49.7 128.456 49.7H123.536C122.176 49.7 121.376 49.88 121.136 50.24C120.896 50.6 120.576 51.26 120.176 52.22L94.1963 117.74C92.1163 122.94 89.7763 126.9 87.1763 129.62C84.6163 132.38 81.9963 134.24 79.3163 135.2C76.6763 136.2 74.1963 136.7 71.8763 136.7C68.7963 136.7 66.1563 135.96 63.9563 134.48C61.7563 133.04 60.0563 131.14 58.8563 128.78C57.6963 126.42 57.1163 123.9 57.1163 121.22Z" fill="url(#paint1_radial_1_5)"/>
</g>
</g>
<defs>
<filter id="filter0_ii_1_5" x="0.5" y="-4.5" width="150" height="157" filterUnits="userSpaceOnUse" color-interpolation-filters="sRGB">
<feFlood flood-opacity="0" result="BackgroundImageFix"/>
<feBlend mode="normal" in="SourceGraphic" in2="BackgroundImageFix" result="shape"/>
<feColorMatrix in="SourceAlpha" type="matrix" values="0 0 0 0 0 0 0 0 0 0 0 0 0 0 0 0 0 0 127 0" result="hardAlpha"/>
<feMorphology radius="5" operator="erode" in="SourceAlpha" result="effect1_innerShadow_1_5"/>
<feOffset dy="-5"/>
<feGaussianBlur stdDeviation="10"/>
<feComposite in2="hardAlpha" operator="arithmetic" k2="-1" k3="1"/>
<feColorMatrix type="matrix" values="0 0 0 0 0 0 0 0 0 0 0 0 0 0 0 0 0 0 0.25 0"/>
<feBlend mode="normal" in2="shape" result="effect1_innerShadow_1_5"/>
<feColorMatrix in="SourceAlpha" type="matrix" values="0 0 0 0 0 0 0 0 0 0 0 0 0 0 0 0 0 0 127 0" result="hardAlpha"/>
<feOffset dy="2"/>
<feGaussianBlur stdDeviation="1"/>
<feComposite in2="hardAlpha" operator="arithmetic" k2="-1" k3="1"/>
<feColorMatrix type="matrix" values="0 0 0 0 1 0 0 0 0 1 0 0 0 0 1 0 0 0 0.5 0"/>
<feBlend mode="normal" in2="effect1_innerShadow_1_5" result="effect2_innerShadow_1_5"/>
</filter>
<filter id="filter1_i_1_5" x="26.4" y="26.3" width="103.916" height="111.4" filterUnits="userSpaceOnUse" color-interpolation-filters="sRGB">
<feFlood flood-opacity="0" result="BackgroundImageFix"/>
<feBlend mode="normal" in="SourceGraphic" in2="BackgroundImageFix" result="shape"/>
<feColorMatrix in="SourceAlpha" type="matrix" values="0 0 0 0 0 0 0 0 0 0 0 0 0 0 0 0 0 0 127 0" result="hardAlpha"/>
<feOffset dy="1"/>
<feGaussianBlur stdDeviation="2.5"/>
<feComposite in2="hardAlpha" operator="arithmetic" k2="-1" k3="1"/>
<feColorMatrix type="matrix" values="0 0 0 0 1 0 0 0 0 1 0 0 0 0 1 0 0 0 0.25 0"/>
<feBlend mode="normal" in2="shape" result="effect1_innerShadow_1_5"/>
</filter>
<linearGradient id="paint0_linear_1_5" x1="75.5" y1="0.5" x2="75.5" y2="150.5" gradientUnits="userSpaceOnUse">
<stop stop-color="#FFE8E8"/>
<stop offset="1" stop-color="#B0876A"/>
</linearGradient>
<radialGradient id="paint1_radial_1_5" cx="0" cy="0" r="1" gradientUnits="userSpaceOnUse" gradientTransform="translate(73.2273 -9.50001) rotate(90) scale(150 175)">
<stop offset="0.439465" stop-color="#001065"/>
<stop offset="0.7" stop-color="#000C49"/>
</radialGradient>
</defs>
</svg>
